<svg id="delivery1" xmlns="http://www.w3.org/2000/svg" viewBox="0 0 188 20"><defs><style>.cls-1{fill:#eaf0ed;}.cls-2{fill:none;stroke:#eaf0ed;stroke-miterlimit:10;}</style></defs><path class="cls-1" d="M10,1a9,9,0,1,1-9,9,9,9,0,0,1,9-9m0-1A10,10,0,1,0,20,10,10,10,0,0,0,10,0Z"/><circle class="cls-1" cx="10" cy="10" r="7"/><path class="cls-1" d="M94,1a9,9,0,1,1-9,9,9,9,0,0,1,9-9m0-1a10,10,0,1,0,10,10A10,10,0,0,0,94,0Z"/><path class="cls-1" d="M178,1a9,9,0,1,1-9,9,9,9,0,0,1,9-9m0-1a10,10,0,1,0,10,10A10,10,0,0,0,178,0Z"/><line class="cls-2" x1="19" y1="10" x2="84.5" y2="10"/><line class="cls-2" x1="103" y1="10" x2="168.5" y2="10"/></svg>