<svg xmlns="http://www.w3.org/2000/svg" viewBox="0 0 188 20"><defs><style>.cls-1{fill:none;stroke:#3f5d45;stroke-miterlimit:10;}.cls-2{fill:#3f5d45;}</style></defs><g id="payment_success"><line class="cls-1" x1="19" y1="10" x2="84.5" y2="10"/><line class="cls-1" x1="103" y1="10" x2="168.5" y2="10"/><path class="cls-2" d="M10,0A10,10,0,1,0,20,10,10,10,0,0,0,10,0Zm5.84,7.38,0,0-6.9,6.9a.6.6,0,0,1-.84,0l-3.9-3.9a.6.6,0,0,1,0-.83l0,0L5,8.7a.61.61,0,0,1,.85,0L8.5,11.33,14.13,5.7a.61.61,0,0,1,.85,0l.84.85A.6.6,0,0,1,15.84,7.38Z"/><path class="cls-2" d="M94,0a10,10,0,1,0,10,10A10,10,0,0,0,94,0Zm5.84,7.38,0,0-6.9,6.9a.6.6,0,0,1-.84,0l-3.9-3.9a.6.6,0,0,1,0-.83l0,0L89,8.7a.61.61,0,0,1,.85,0l2.65,2.63L98.13,5.7a.61.61,0,0,1,.85,0l.84.85A.6.6,0,0,1,99.84,7.38Z"/><path class="cls-2" d="M178,0a10,10,0,1,0,10,10A10,10,0,0,0,178,0Zm5.84,7.38,0,0-6.9,6.9a.6.6,0,0,1-.84,0l-3.9-3.9a.6.6,0,0,1,0-.83l0,0L173,8.7a.61.61,0,0,1,.85,0l2.65,2.63,5.63-5.63a.61.61,0,0,1,.85,0l.84.85A.6.6,0,0,1,183.84,7.38Z"/></g></svg>