<svg xmlns="http://www.w3.org/2000/svg" viewBox="0 0 188 20"><defs><style>.cls-1{fill:#eaf0ed;}.cls-2{fill:none;stroke:#eaf0ed;stroke-miterlimit:10;}</style></defs><g id="invoice"><path class="cls-1" d="M10,0A10,10,0,1,0,20,10,10,10,0,0,0,10,0Zm5.84,7.38,0,0-6.9,6.9a.6.6,0,0,1-.84,0l-3.9-3.9a.6.6,0,0,1,0-.83l0,0L5,8.7a.61.61,0,0,1,.85,0L8.5,11.33,14.13,5.7a.61.61,0,0,1,.85,0l.84.85A.6.6,0,0,1,15.84,7.38Z"/><path class="cls-1" d="M94,0a10,10,0,1,0,10,10A10,10,0,0,0,94,0Zm5.84,7.38,0,0-6.9,6.9a.6.6,0,0,1-.84,0l-3.9-3.9a.6.6,0,0,1,0-.83l0,0L89,8.7a.61.61,0,0,1,.85,0l2.65,2.63L98.13,5.7a.61.61,0,0,1,.85,0l.84.85A.6.6,0,0,1,99.84,7.38Z"/><path class="cls-1" d="M178,1a9,9,0,1,1-9,9,9,9,0,0,1,9-9m0-1a10,10,0,1,0,10,10A10,10,0,0,0,178,0Z"/><circle class="cls-1" cx="178" cy="10" r="7"/><line class="cls-2" x1="19" y1="10" x2="84.5" y2="10"/><line class="cls-2" x1="103" y1="10" x2="168.5" y2="10"/></g></svg>